<svg preserveAspectRatio="xMidYMid meet" data-bbox="0 0 61.115 55.452" xmlns="http://www.w3.org/2000/svg" xmlns:xlink="http://www.w3.org/1999/xlink" viewBox="0 0 61.115 56.925" height="215.149" width="230.987" data-type="ugc" role="presentation" aria-hidden="true" aria-label="">
    <g>
        <defs>
            <linearGradient id="ac9837fa-013b-4b25-94e0-d62906cc634b_comp-l50lo2zk">
                <stop offset="0" stop-color="#162d50"></stop>
                <stop offset="1" stop-color="#2c5aa0"></stop>
            </linearGradient>
            <linearGradient id="6dd4e30a-cf7c-41b4-a80b-cfd9ed0ff3e7_comp-l50lo2zk">
                <stop offset="0" stop-color="#ffcc00"></stop>
                <stop offset="1" stop-color="#ffe680"></stop>
            </linearGradient>
            <linearGradient gradientTransform="translate(39.694 -176.898)" gradientUnits="userSpaceOnUse" y2="276.392" x2="46.567" y1="248.875" x1="19.315" id="56fe0611-2178-4943-97d5-e8eac4b7aabb_comp-l50lo2zk" xlink:href="#6dd4e30a-cf7c-41b4-a80b-cfd9ed0ff3e7_comp-l50lo2zk"></linearGradient>
            <linearGradient gradientTransform="translate(39.694 -176.898)" gradientUnits="userSpaceOnUse" y2="275.466" x2="40.217" y1="254.96" x1="22.49" id="f5031658-b312-4b56-84b5-d36b70e7c1bf_comp-l50lo2zk" xlink:href="#ac9837fa-013b-4b25-94e0-d62906cc634b_comp-l50lo2zk"></linearGradient>
        </defs>
        <path d="M23.732 41.534c.238.02 1.523 2.997 1.956 4.757.49 1.99.394 3.679-.257 4.538-.762 1.004-1.063.096-1.252-3.774-.106-2.183-.297-4.438-.423-5.011-.08-.361-.08-.514-.025-.51z" fill="#002255"></path>
        <path d="M21.079 40.936c.158-.033.351.567.62 1.705.735 3.11.706 4.623-.104 5.484-1.205 1.281-1.362.904-1.114-2.693.21-3.046.367-4.447.598-4.496z" fill="#002255"></path>
        <path d="m18.136 35.442.292 2.544c.348 3.024.112 5.063-.76 6.588-.75 1.31-1.63 1.486-1.63.325 0-.437.285-1.654.632-2.706.348-1.05.82-3 1.05-4.331z" fill="#002255"></path>
        <path d="M16.208 32.424c.115.04-.145.999-.838 3.54-.765 2.8-1.492 4.536-2.074 4.945-1.899 1.336-.437-3.536 2.312-7.705.327-.496.531-.804.6-.78z" fill="#002255"></path>
        <path d="M14.32 27.418c.289.308-2.375 6.583-3.188 7.507-1.318 1.5-2.178 1.352-1.596-.276.36-1.003 4.605-7.421 4.784-7.231z" fill="#002255"></path>
        <path d="M12.103 24.45c.114.04-.011.723-.367 1.987-.83 2.95-1.72 4.863-2.47 5.31-.767.456-1.144.142-.883-.733.255-.854 2.991-5.78 3.603-6.488.052-.06.091-.085.117-.076z" fill="#002255"></path>
        <path d="M.396 23.927c.084.007.269.235.566.743.336.574 1.732 2.236 3.104 3.694 1.372 1.458 2.494 2.904 2.494 3.214 0 .93-1.104.641-2.539-.665-.815-.742-1.808-2.202-2.51-3.694-.886-1.883-1.328-3.31-1.115-3.292z" fill="#002255"></path>
        <path d="M12.645 20.097c.012 0 .02.002.024.007.204.217-2.51 3.468-3.294 3.947-1.038.634-1.834.545-1.834-.206 0-.359.183-.814.408-1.012.715-.63 4.346-2.736 4.696-2.736z" fill="#002255"></path>
        <path d="M13.714 15.05c.024.003.037.015.037.037 0 .18-.85 1.276-1.889 2.436-1.205 1.347-2.15 2.11-2.614 2.11-.934 0-.93-.733.009-1.608 1.163-1.085 4.095-3.022 4.457-2.975z" fill="#002255"></path>
        <path d="M14.937 10.63c.351-.028-2.314 2.819-3.605 3.832-2.046 1.606-3.401 1.176-1.67-.53.689-.678 4.171-2.869 5.232-3.29a.16.16 0 0 1 .043-.012z" fill="#002255"></path>
        <path d="M3.576 10.598c.206 0 .378.577.388 1.303.01.717.456 2.632.991 4.257.535 1.624 1.094 3.422 1.242 3.995l.268 1.043.233-1.043c.468-2.093 1.868-6.843 1.982-6.722.064.068-.245 1.451-.687 3.073-4.263 15.645 4.346 31.441 19.812 36.354 3.039.966 1.567 1.087-1.798.148-2.26-.63-2.295-.63-2.905.057-.339.382-1.075.907-1.634 1.166v-.001c-1.614.746-6.274.626-8.909-.231-2.152-.7-6.138-2.714-5.892-2.976.066-.07.694.132 1.396.447 3.471 1.561 7.617 1.927 12.64 1.114l2.538-.411-1.994-1.132-1.994-1.133-1.035.671c-2.324 1.507-7.413.599-11.652-2.078-2.47-1.56-3.45-2.576-1.425-1.478 2.473 1.342 5.872 2.192 9.715 2.433 2.072.131 3.664.13 3.538 0-.127-.131-.885-.786-1.684-1.455-1.196-1.002-1.566-1.152-2.096-.85-.995.566-4.151.109-6.118-.886-2.047-1.035-5.672-4.056-6.221-5.185-.333-.684-.269-.665.566.166 1.313 1.308 6.04 3.572 8.85 4.238 1.294.307 2.463.558 2.6.558.135 0-.316-.613-1.004-1.361-1.08-1.177-1.397-1.336-2.324-1.176-2.21.381-6.192-2.44-8.635-6.116-.734-1.104-.632-1.058 1.533.694 1.276 1.033 3.514 2.454 4.974 3.158l2.654 1.28-.632-1.106a498.9 498.9 0 0 1-1.304-2.298c-.374-.664-.992-1.245-1.395-1.31-2.48-.402-6.167-4.899-7.779-9.486-.369-1.051-.49-1.614-.268-1.252 1.088 1.78 4.315 5.834 6.229 7.824l2.143 2.228-.8-2.75c-.441-1.512-.894-3.79-1.006-5.063-.234-2.636-.29-2.765-1.472-3.316-1.85-.862-3.58-4.5-4.018-8.443l-.212-1.91.81 2.038c.446 1.121 1.372 2.901 2.058 3.956a317.433 317.433 0 0 1 1.774 2.756l.528.838.208-1.102c.282-1.5.26-2.83-.042-2.63-.44.29-1.27-.607-2.045-2.21-.597-1.236-.786-2.304-.907-5.123-.108-2.514-.044-3.562.217-3.562z" fill="#002255"></path>
        <path d="M16.527 6.504c.105-.003.165.017.165.062 0 .083-.897.868-1.993 1.744-1.822 1.456-3.236 2.027-3.236 1.307 0-.43 1.339-1.649 2.45-2.23.866-.453 2.16-.872 2.614-.883z" fill="#002255"></path>
        <path d="M21.025.247c.06-.001.104.01.128.036.097.103-.316.455-.917.782-1.531.833-3.344 2.348-5.926 4.953-1.22 1.23-2.297 2.154-2.393 2.051-.32-.339.766-2.139 2.21-3.665C15.391 3.066 20.121.255 21.025.247z" fill="#002255"></path>
        <path d="m11.743 0 .017 1.217c.024 1.745-.553 5.776-1.132 7.917-.274 1.01-.64 1.743-.812 1.63-.832-.547-.07-5.98 1.299-9.258zM7.017 5.213l.27 3.822c.344 4.88.352 5.044.299 6.07l-.045.86-.736-.782c-.65-.691-.735-1.131-.734-3.813.001-1.683.212-3.726.474-4.594z" fill="#002255"></path>
        <path d="M37.383 41.562c-.238.02-1.523 2.996-1.957 4.757-.49 1.99-.393 3.678.258 4.537.762 1.004 1.063.097 1.251-3.774.107-2.182.297-4.437.424-5.01.08-.362.08-.515.024-.51z" fill="#002255"></path>
        <path d="M40.036 40.964c-.159-.034-.351.566-.62 1.704-.735 3.11-.706 4.623.104 5.484 1.205 1.282 1.361.905 1.113-2.693-.21-3.046-.367-4.447-.597-4.495z" fill="#002255"></path>
        <path d="m42.979 35.469-.293 2.544c-.347 3.025-.112 5.064.76 6.589.75 1.31 1.63 1.486 1.63.324 0-.436-.284-1.654-.631-2.705-.348-1.051-.82-3-1.05-4.332z" fill="#002255"></path>
        <path d="M44.907 32.451c-.116.04.145 1 .838 3.54.764 2.8 1.492 4.537 2.073 4.946 1.9 1.336.438-3.537-2.311-7.705-.327-.496-.531-.804-.6-.78z" fill="#002255"></path>
        <path d="M46.795 27.446c-.289.307 2.375 6.582 3.188 7.507 1.318 1.5 2.178 1.351 1.595-.276-.358-1.004-4.604-7.422-4.783-7.231z" fill="#002255"></path>
        <path d="M49.012 24.478c-.114.04.011.722.367 1.986.83 2.95 1.72 4.863 2.47 5.31.767.456 1.144.143.883-.732-.255-.854-2.991-5.781-3.604-6.489-.051-.06-.09-.084-.116-.075z" fill="#002255"></path>
        <path d="M60.718 23.954c-.083.007-.268.235-.565.744-.336.573-1.732 2.235-3.104 3.693-1.372 1.458-2.494 2.905-2.494 3.214 0 .93 1.104.641 2.538-.664.816-.742 1.809-2.203 2.51-3.695.887-1.882 1.33-3.31 1.115-3.292z" fill="#002255"></path>
        <path d="M48.47 20.125c-.012 0-.02.002-.024.007-.204.216 2.51 3.467 3.294 3.946 1.038.634 1.834.545 1.834-.206 0-.358-.183-.814-.408-1.012-.715-.63-4.346-2.736-4.696-2.735z" fill="#002255"></path>
        <path d="M47.401 15.078c-.024.003-.037.015-.037.037 0 .18.85 1.275 1.888 2.436 1.206 1.346 2.151 2.109 2.615 2.109.934 0 .93-.732-.009-1.607-1.163-1.085-4.095-3.022-4.457-2.975z" fill="#002255"></path>
        <path d="M46.177 10.657c-.35-.028 2.315 2.82 3.606 3.833 2.046 1.606 3.401 1.176 1.67-.53-.69-.679-4.172-2.87-5.232-3.29a.16.16 0 0 0-.043-.013z" fill="#002255"></path>
        <path d="M57.539 10.626c-.206 0-.378.577-.388 1.303-.01.716-.456 2.632-.991 4.256-.536 1.625-1.094 3.423-1.242 3.996l-.268 1.043-.233-1.043c-.468-2.094-1.868-6.843-1.982-6.723-.064.068.245 1.451.687 3.073 4.263 15.645-4.346 31.442-19.812 36.355-3.039.965-1.567 1.086 1.798.148 2.26-.63 2.295-.63 2.904.056.34.383 1.075.907 1.635 1.166 1.614.746 6.274.625 8.908-.232 2.153-.7 6.14-2.713 5.893-2.976-.066-.07-.694.132-1.396.448-3.471 1.56-7.617 1.926-12.64 1.113l-2.538-.41 1.994-1.133 1.994-1.132 1.035.67c2.324 1.507 7.413.6 11.652-2.078 2.47-1.56 3.45-2.576 1.425-1.478-2.474 1.342-5.872 2.193-9.715 2.434-2.073.13-3.665.13-3.538-.001.127-.131.885-.785 1.684-1.454 1.196-1.002 1.566-1.152 2.096-.85.995.565 4.151.108 6.118-.887 2.047-1.035 5.672-4.055 6.221-5.184.333-.684.268-.665-.566.166-1.313 1.308-6.04 3.571-8.85 4.238-1.294.306-2.463.557-2.6.557-.135 0 .316-.612 1.004-1.361 1.08-1.176 1.397-1.336 2.324-1.176 2.21.382 6.192-2.439 8.635-6.116.734-1.103.632-1.058-1.533.695-1.276 1.033-3.514 2.454-4.974 3.158l-2.654 1.28.632-1.106a498.9 498.9 0 0 0 1.304-2.299c.374-.664.992-1.244 1.395-1.31 2.48-.402 6.167-4.898 7.779-9.486.369-1.05.49-1.614.268-1.251-1.088 1.78-4.315 5.834-6.229 7.823l-2.143 2.229.8-2.75c.441-1.512.894-3.791 1.006-5.064.234-2.636.29-2.764 1.472-3.315 1.85-.863 3.58-4.5 4.018-8.443l.212-1.911-.81 2.038c-.446 1.122-1.372 2.902-2.058 3.956a317.433 317.433 0 0 0-1.774 2.756l-.529.839-.207-1.103c-.282-1.5-.261-2.829.042-2.63.44.29 1.27-.607 2.044-2.209.598-1.237.787-2.304.908-5.124.108-2.513.044-3.561-.217-3.561z" fill="#002255"></path>
        <path d="M44.587 6.531c-.104-.002-.164.017-.164.063 0 .083.897.867 1.993 1.744 1.822 1.456 3.236 2.027 3.236 1.306 0-.43-1.34-1.648-2.451-2.23-.866-.453-2.159-.872-2.613-.882z" fill="#002255"></path>
        <path d="M40.09.274c-.06 0-.104.011-.128.037-.097.103.316.454.917.781 1.531.833 3.344 2.348 5.926 4.953 1.22 1.231 2.297 2.154 2.393 2.052.32-.34-.766-2.14-2.21-3.666C45.723 3.094 40.994.283 40.09.274z" fill="#002255"></path>
        <path d="m49.371.028-.016 1.216c-.024 1.745.552 5.776 1.132 7.917.274 1.01.639 1.744.812 1.63.832-.547.07-5.98-1.299-9.258zm4.727 5.212-.27 3.822c-.344 4.88-.352 5.045-.299 6.071l.045.859.736-.781c.65-.692.734-1.132.733-3.813 0-1.683-.21-3.726-.473-4.595z" fill="#002255"></path>
        <path d="M52.118 72.376c.432 15.574-.602 30.539 20.771 42.623C94.13 102.7 92.105 87.966 93.391 72.915c-6.011-2.363-11.715-4.264-20.502-10.79-8.441 5.947-14.384 7.728-20.771 10.25z" fill="url(#56fe0611-2178-4943-97d5-e8eac4b7aabb_comp-l50lo2zk)" stroke="#000000" stroke-width="2.559" transform="translate(-42.223 -59.547)"></path>
        <path d="m72.163 66.424.41 44.388c8.993-5.444 12.194-9.274 16.363-20.66l-32.319-.205c-.42-1.912-1.33-3.284-1.227-15.137 8.3-2.622 11.674-4.47 16.773-8.386z" fill="url(#f5031658-b312-4b56-84b5-d36b70e7c1bf_comp-l50lo2zk)" stroke="#000000" stroke-width=".783" transform="translate(-42.223 -59.547)"></path>
        <g style="line-height:4.61426px;-inkscape-font-specification:'Vani, Normal';font-variant-ligatures:normal;font-variant-caps:normal;font-variant-numeric:normal;font-feature-settings:normal;text-align:start">
            <path style="-inkscape-font-specification:'Vani, Normal';font-variant-ligatures:normal;font-variant-caps:normal;font-variant-numeric:normal;font-feature-settings:normal;text-align:start" d="M27.032 275.919q-.243.009-.606.069-.355.052-.606.138-.294.104-.398.346-.103.243-.103.528v7.276q0 .571-.234 1.211-.225.64-.666 1.142-.51.589-1.22.918-.7.328-1.61.328-1.41 0-2.292-.787-.874-.796-.874-2.137 0-.588.303-1.038.303-.459.882-.459.52 0 .831.294.32.286.32.762 0 .277-.112.553-.113.277-.251.494-.13.199-.294.467-.165.268-.234.484.182.286.562.502.39.216 1.039.216.631 0 1.03-.285.406-.294.605-.779.19-.45.268-1.107.086-.658.086-1.471v-6.497q0-.303-.103-.502-.096-.208-.407-.364-.268-.138-.675-.207-.398-.078-.657-.095v-.615h5.416z" fill="#ffffff" transform="matrix(1.09313 0 0 .9148 -2.529 -236.445)" aria-label="J" font-weight="400" font-size="17.719" font-family="Vani" letter-spacing="0" word-spacing="0" stroke="#00002b" stroke-width=".477"></path>
        </g>
        <path d="M39.009 33.303c-.11.031-.134.072-.268.453a3.478 3.478 0 0 1-.826 1.291c-.504.473-.498.547-1.927.99-1.412.438-1.65.47-2.155.899-.997.847-1.414 2.127-1.145 3.43.044.212.023.275.042.27.018-.005.184-.008.304-.141.49-.545 1.207-1.208 1.928-1.638.738-.44 2.341-.995 2.624-.961.242.028.374.246.28.472-.05.124-.082.164-.548.326-1.846.642-3.054 1.446-4.067 2.707-.755.94-1.381 2.482-1.23 3.014.07.248.294.367.529.3.25-.07.297-.188.37-.533.038-.172.138-.437.194-.607.115-.349.575-1.237.654-1.259.028-.008.345.065.616.213.973.53 1.834.584 2.857.241 1.773-.596 2.98-2.07 3.321-4.022.154-.88.163-1.43.02-2.315l-.1-.635-.174-.482a6.32 6.32 0 0 0-.736-1.436c-.284-.42-.458-.608-.563-.578Z" fill="#ffffff" stroke="#00112b" stroke-width=".5" stroke-linecap="round" stroke-linejoin="round" paint-order="fill markers stroke"></path>
        <path d="M38.267 27.788c-1.31-.431-3.619-.612-5.438-.425-.38.039-.76.053-.845.032l-.154-.038v-9.974l.15-.04c.084-.023.204-.042.269-.042.11-.001.118.272.134 4.529l.017 4.53 1.04.023c1.668.037 3.285.365 4.858.984l.708.279.708-.279a14.021 14.021 0 0 1 4.858-.984l1.04-.024.016-4.53c.017-4.256.025-4.529.135-4.528.064 0 .184.019.267.041l.151.04v4.984c0 4.886-.002 4.985-.13 5.026-.073.023-.514.006-.982-.039-1.049-.098-3.053-.045-3.884.103-.332.06-.845.173-1.14.254-.662.18-1.372.211-1.777.078zm.403-.623c-.194-.12-1.649-.594-2.26-.737a12.637 12.637 0 0 0-2.853-.342h-.855v-9.859h.536v9.107l.42.045c1.58.167 3.152.64 4.615 1.385.353.18.682.327.733.327.05 0 .38-.147.733-.327a13.283 13.283 0 0 1 4.615-1.385l.419-.045v-9.107h.536v9.858l-.855.001c-1.446.002-2.914.273-4.375.807-.803.294-1.237.378-1.409.272zm-.402-.753c-1.16-.603-2.81-1.122-4.067-1.281l-.627-.079v-9.914l.385.046c1.252.15 2.796.618 4.09 1.243l.822.396v4.933c0 2.713-.022 4.929-.05 4.925a6.629 6.629 0 0 1-.553-.27zm.872-4.65v-4.94l.821-.395c1.295-.625 2.839-1.094 4.091-1.243l.386-.046v9.915l-.627.079c-1.24.156-2.698.609-3.976 1.233-.327.16-.617.3-.645.313-.028.012-.05-2.2-.05-4.916z" fill="#000000"></path>
        <path d="M23.515 44.333a1.961 1.961 0 0 1-.651-.205c-.158-.079-.317-.246-.317-.333 0-.028.384-.04 1.308-.04 1.437 0 1.4-.005 1.218.211-.101.12-.377.26-.626.32a3.367 3.367 0 0 1-.932.046zm-1.004-.99v-.197h2.724v.395h-2.724zm.015-.445a.826.826 0 0 1-.015-.206v-.19h2.724v.392l-1.347.01a31.04 31.04 0 0 1-1.362-.005zm-.015-.809v-.197h2.724v.394h-2.724zm.054-.492c-.145-.05-.402-.262-.464-.382a7.396 7.396 0 0 1-.213-.658c-.164-.568-.306-.9-.463-1.088-.307-.367-.704-1.091-.87-1.592-.093-.276-.102-.35-.102-.806 0-.41.015-.557.082-.807a3.519 3.519 0 0 1 1.934-2.301c.753-.342 1.759-.393 2.534-.128A3.609 3.609 0 0 1 27 35.565c.371.738.453 1.667.21 2.382-.17.503-.302.74-.907 1.62-.165.242-.243.445-.462 1.207-.132.459-.27.659-.546.792-.147.072-.207.075-1.388.072-.766-.002-1.275-.017-1.342-.04zm-.592-4.364c.08-.08.095-.139.123-.454.073-.835.77-1.512 1.688-1.64.403-.055.457-.096.44-.326-.009-.125-.027-.152-.138-.206-.11-.054-.167-.058-.394-.03a2.348 2.348 0 0 0-1.468.72 2.334 2.334 0 0 0-.705 1.528c-.02.28-.018.297.072.386.113.113.281.123.382.022z" fill="#000000"></path>
    </g>
</svg>